<?xml version="1.0" standalone="no"?>
<!DOCTYPE svg><svg data-v-0dd9719b="" version="1.0" xmlns="http://www.w3.org/2000/svg" xmlns:xlink="http://www.w3.org/1999/xlink" width="100%" height="100%" viewBox="0 0 340.000000 250.000000" preserveAspectRatio="xMidYMid meet" color-interpolation-filters="sRGB" style="margin: auto;"> <rect data-v-0dd9719b="" x="0" y="0" width="100%" height="100%" fill="#ffffff" fill-opacity="0" class="background"></rect> <rect data-v-0dd9719b="" x="0" y="0" width="100%" height="100%" fill="url(#watermark)" fill-opacity="1" class="watermarklayer"></rect> <g data-v-0dd9719b="" class="iconmbgsvg" transform="translate(113.75,60.04618835449219)"><g fill="#333333" hollow-target="textNormalTran"><g opacity="1" transform="matrix(1,0,0,1,0,0)"><g><rect fill="#333333" fill-opacity="0" stroke-width="2" x="0" y="0" width="112.5" height="129.90762124711318" class="image-rect"></rect> <svg x="0" y="0" width="112.5" height="129.90762124711318" filtersec="colorsb9594534106" class="image-svg-svg primary" style="overflow: visible;"><svg xmlns="http://www.w3.org/2000/svg" viewBox="0 0 86.5999984741211 100"><path fill="#FFFFFF" d="M86.6 25.36V75L64.95 87.5 43.3 100V51.47l21.65-13.06L86.6 25.36z"></path><path fill="#FFFFFF" opacity=".8" d="M64.95 13.25v25.02L43.3 51.32V100L22.44 87.96V38.88L43.3 26.31l21.65-13.06z"></path><path fill="#FFFFFF" opacity=".6" d="M43.3 0v26.31L22.44 38.88v49.08L2.18 76.26l-.12-.07L0 75V25l15.82-9.13 6.62-3.83L43.3 0z"></path></svg></svg> <!----></g></g> <g transform="translate(41.385000228881836,42.37381172180176)"><g data-gra="path-name" fill-rule="" class="tp-name" opacity="1" transform="matrix(1,0,0,1,0,0)"><g transform="scale(1)"><g><path d="M29.73-24.15L22.29-24.15 22.29-26.01Q22.29-27.55 21.21-28.64 20.12-29.73 18.58-29.73L18.58-29.73 11.15-29.73Q9.61-29.73 8.52-28.64 7.43-27.55 7.43-26.01L7.43-26.01 7.43-11.15Q7.43-9.61 8.52-8.52 9.61-7.43 11.15-7.43L11.15-7.43 18.58-7.43Q20.12-7.43 21.21-8.52 22.29-9.61 22.29-11.15L22.29-11.15 22.29-13.01 29.73-13.01 29.73-11.15Q29.73-8.81 28.85-6.79 27.97-4.78 26.46-3.26 24.95-1.75 22.9-0.88 20.86 0 18.58 0L18.58 0 11.15 0Q8.81 0 6.79-0.88 4.78-1.75 3.26-3.26 1.75-4.78 0.88-6.79 0-8.81 0-11.15L0-11.15 0-26.01Q0-28.29 0.88-30.34 1.75-32.38 3.26-33.89 4.78-35.41 6.79-36.28 8.81-37.16 11.15-37.16L11.15-37.16 18.58-37.16Q20.86-37.16 22.9-36.28 24.95-35.41 26.46-33.89 27.97-32.38 28.85-30.34 29.73-28.29 29.73-26.01L29.73-26.01 29.73-24.15Z" transform="translate(0, 37.15999984741211)"></path></g> <!----> <!----> <!----> <!----> <!----> <!----> <!----></g></g> <!----></g></g></g><defs v-gra="od"></defs></svg>